<svg width="1280" height="420" viewBox="0 0 1280 420" fill="none" xmlns="http://www.w3.org/2000/svg">
  <defs>
    <linearGradient id="bg" x1="120" y1="40" x2="1140" y2="420" gradientUnits="userSpaceOnUse">
      <stop offset="0" stop-color="#FBF5E9" />
      <stop offset="0.54" stop-color="#E8D3AB" />
      <stop offset="1" stop-color="#D2A16B" />
    </linearGradient>
    <linearGradient id="dune" x1="0" y1="260" x2="1280" y2="370" gradientUnits="userSpaceOnUse">
      <stop offset="0" stop-color="#D28A55" stop-opacity="0.16" />
      <stop offset="1" stop-color="#6F4229" stop-opacity="0.24" />
    </linearGradient>
    <radialGradient id="glow" cx="0" cy="0" r="1" gradientUnits="userSpaceOnUse" gradientTransform="translate(1040 90) rotate(130) scale(240 190)">
      <stop stop-color="white" stop-opacity="0.55" />
      <stop offset="1" stop-color="white" stop-opacity="0" />
    </radialGradient>
  </defs>

  <rect width="1280" height="420" rx="36" fill="url(#bg)" />
  <circle cx="1050" cy="90" r="210" fill="url(#glow)" />
  <circle cx="190" cy="84" r="94" fill="#FFF9EF" fill-opacity="0.7" />

  <path
    d="M0 315C74 278 137 258 188 260C239 262 281 289 332 290C383 291 415 254 470 250C525 246 559 285 609 286C659 287 699 242 753 240C807 238 837 275 887 276C937 277 972 242 1023 240C1074 238 1113 271 1167 277C1216 282 1254 274 1280 262V420H0V315Z"
    fill="url(#dune)"
  />

  <path
    d="M72 286C117 286 136 247 172 247C208 247 226 286 262 286C298 286 317 236 354 236C391 236 406 286 444 286C482 286 499 231 537 231C575 231 593 286 632 286C671 286 690 228 728 228C766 228 786 286 824 286C862 286 882 239 919 239C956 239 975 286 1013 286C1051 286 1072 244 1108 244C1144 244 1168 286 1210 286"
    stroke="#59311E"
    stroke-opacity="0.62"
    stroke-width="18"
    stroke-linecap="round"
    stroke-linejoin="round"
  />

  <path
    d="M0 352C80 330 144 323 202 326C265 329 323 347 386 346C448 345 500 323 564 323C628 323 670 346 736 347C801 348 847 325 910 324C973 323 1025 347 1088 346C1156 345 1219 330 1280 308V420H0V352Z"
    fill="#8A4E31"
    fill-opacity="0.16"
  />
</svg>
