<?xml version="1.0" encoding="UTF-8"?>
<svg width="1600" height="900" viewBox="0 0 1600 900" fill="none" xmlns="http://www.w3.org/2000/svg">
  <defs>
    <linearGradient id="heroBg" x1="0" y1="0" x2="1600" y2="900" gradientUnits="userSpaceOnUse">
      <stop offset="0%" stop-color="#FFF7E7" />
      <stop offset="55%" stop-color="#F4D7A8" />
      <stop offset="100%" stop-color="#D7844A" />
    </linearGradient>
    <radialGradient id="meshGlow" cx="0" cy="0" r="1" gradientUnits="userSpaceOnUse" gradientTransform="translate(1210 176) rotate(90) scale(420 620)">
      <stop offset="0%" stop-color="white" stop-opacity="0.82" />
      <stop offset="100%" stop-color="white" stop-opacity="0" />
    </radialGradient>
    <pattern id="meshPattern" width="72" height="72" patternUnits="userSpaceOnUse">
      <circle cx="8" cy="8" r="2.3" fill="rgba(15,92,97,0.28)" />
      <circle cx="64" cy="38" r="1.8" fill="rgba(200,108,42,0.24)" />
      <path d="M8 8L64 38" stroke="rgba(15,92,97,0.1)" stroke-width="1.4" />
    </pattern>
  </defs>

  <rect width="1600" height="900" fill="url(#heroBg)" />
  <rect width="1600" height="900" fill="url(#meshPattern)" opacity="0.82" />
  <ellipse cx="1200" cy="176" rx="540" ry="360" fill="url(#meshGlow)" />
  <path d="M 0 680 C 280 620 498 734 768 670 C 1044 604 1324 760 1600 650 V 900 H 0 Z" fill="rgba(15,92,97,0.11)" />

  <g transform="translate(72 96) scale(0.66)">
    
<svg viewBox="0 0 960 720" fill="none" xmlns="http://www.w3.org/2000/svg">
  <defs>
    <linearGradient id="camelFill" x1="120" y1="180" x2="860" y2="560" gradientUnits="userSpaceOnUse">
      <stop offset="0%" stop-color="#f3e1c9" />
      <stop offset="58%" stop-color="#F7D7A8" />
      <stop offset="100%" stop-color="#E3A86F" />
    </linearGradient>
    <linearGradient id="camelShade" x1="220" y1="250" x2="760" y2="560" gradientUnits="userSpaceOnUse">
      <stop offset="0%" stop-color="#c86c2a" stop-opacity="0.85" />
      <stop offset="100%" stop-color="#91502d" stop-opacity="0.92" />
    </linearGradient>
    <filter id="softShadow" x="62" y="130" width="840" height="480" filterUnits="userSpaceOnUse" color-interpolation-filters="sRGB">
      <feDropShadow dx="0" dy="12" stdDeviation="18" flood-color="#7A4A2A" flood-opacity="0.18" />
    </filter>
  </defs>

  <g filter="url(#softShadow)">
    <path d="M 128 292 C 142.04 260 156.07999999999998 214 167 214 C 177.92000000000002 214 191.96 260 206 292 C 220.04 260 234.07999999999998 214 245 214 C 255.92000000000002 214 269.96 260 284 292 C 298.04 260 312.08 214 323 214 C 333.92 214 347.96 260 362 292 C 376.04 260 390.08 214 401 214 C 411.92 214 425.96 260 440 292 C 454.04 260 468.08 214 479 214 C 489.92 214 503.96 260 518 292 C 532.04 260 546.08 214 557 214 C 567.92 214 581.96 260 596 292 C 624 286 652 266 670 234 C 688 200 712 164 752 152 C 784 144 816 154 828 182 C 838 206 832 236 804 248 C 768 264 734 252 716 266 C 690 286 682 326 678 360 L 660 520 C 658 534 644 544 630 544 L 600 544 C 586 544 576 532 578 518 L 594 392 L 568 392 L 548 540 C 546 554 532 564 518 564 L 494 564 C 478 564 468 550 470 536 L 490 392 L 376 392 L 356 550 C 354 564 340 574 326 574 L 300 574 C 284 574 274 560 276 546 L 296 392 L 206 392 L 188 524 C 186 538 172 548 158 548 L 130 548 C 114 548 104 534 106 520 L 124 360 C 126 338 120 316 112 300 Z" fill="url(#camelFill)" stroke="#251815" stroke-width="18" stroke-linejoin="round" />
    <path d="M 146 350 C 198 316 258 324 316 334 C 376 344 442 344 512 328 C 578 314 652 320 734 350" stroke="url(#camelShade)" stroke-width="18" stroke-linecap="round" opacity="0.82" />
    <path d="M 704 206 C 726 196 750 198 766 214" stroke="#251815" stroke-width="12" stroke-linecap="round" />
    <circle cx="828" cy="194" r="7" fill="#251815" />
    
      <circle cx="207" cy="208" r="8" fill="#f0b353" stroke="#251815" stroke-width="4" />
      <circle cx="207" cy="208" r="3" fill="#251815" />
    
      <circle cx="285" cy="208" r="8" fill="#f0b353" stroke="#251815" stroke-width="4" />
      <circle cx="285" cy="208" r="3" fill="#251815" />
    
      <circle cx="363" cy="208" r="8" fill="#f0b353" stroke="#251815" stroke-width="4" />
      <circle cx="363" cy="208" r="3" fill="#251815" />
    
      <circle cx="441" cy="208" r="8" fill="#f0b353" stroke="#251815" stroke-width="4" />
      <circle cx="441" cy="208" r="3" fill="#251815" />
    
      <circle cx="519" cy="208" r="8" fill="#f0b353" stroke="#251815" stroke-width="4" />
      <circle cx="519" cy="208" r="3" fill="#251815" />
    
      <circle cx="597" cy="208" r="8" fill="#f0b353" stroke="#251815" stroke-width="4" />
      <circle cx="597" cy="208" r="3" fill="#251815" />
    
  </g>
</svg>
  </g>

  <g transform="translate(664 132)">
    <text x="0" y="0" fill="#251815" font-family="'Space Grotesk', 'Segoe UI', sans-serif" font-size="114" font-weight="700">CKAMAL</text>
    <text x="0" y="68" fill="#0f5c61" font-family="'IBM Plex Sans', 'Segoe UI', sans-serif" font-size="32" font-weight="600">Deep-integration camel agent for AMS, GitHub delivery, and subscription-backed model surfaces.</text>
    <text x="0" y="136" fill="rgba(37,24,21,0.74)" font-family="'IBM Plex Sans', 'Segoe UI', sans-serif" font-size="24">The camel carries 6 humps because the project stands on 6 stable abstractions, not on scattered features.</text>
  </g>

  
      <g transform="translate(650 166)">
        <rect width="154" height="42" rx="21" fill="rgba(255,248,239,0.82)" stroke="rgba(37,24,21,0.14)" />
        <text x="77" y="27" text-anchor="middle" fill="#251815" font-family="'IBM Plex Sans', 'Segoe UI', sans-serif" font-size="16" font-weight="600">AMS BIOS</text>
      </g>
    
      <g transform="translate(826 166)">
        <rect width="154" height="42" rx="21" fill="rgba(255,248,239,0.82)" stroke="rgba(37,24,21,0.14)" />
        <text x="77" y="27" text-anchor="middle" fill="#251815" font-family="'IBM Plex Sans', 'Segoe UI', sans-serif" font-size="16" font-weight="600">Provider Surfaces</text>
      </g>
    
      <g transform="translate(650 252)">
        <rect width="154" height="42" rx="21" fill="rgba(255,248,239,0.82)" stroke="rgba(37,24,21,0.14)" />
        <text x="77" y="27" text-anchor="middle" fill="#251815" font-family="'IBM Plex Sans', 'Segoe UI', sans-serif" font-size="16" font-weight="600">Domain Data</text>
      </g>
    
      <g transform="translate(826 252)">
        <rect width="154" height="42" rx="21" fill="rgba(255,248,239,0.82)" stroke="rgba(37,24,21,0.14)" />
        <text x="77" y="27" text-anchor="middle" fill="#251815" font-family="'IBM Plex Sans', 'Segoe UI', sans-serif" font-size="16" font-weight="600">Execution Bus</text>
      </g>
    
      <g transform="translate(650 338)">
        <rect width="154" height="42" rx="21" fill="rgba(255,248,239,0.82)" stroke="rgba(37,24,21,0.14)" />
        <text x="77" y="27" text-anchor="middle" fill="#251815" font-family="'IBM Plex Sans', 'Segoe UI', sans-serif" font-size="16" font-weight="600">Operator UX</text>
      </g>
    
      <g transform="translate(826 338)">
        <rect width="154" height="42" rx="21" fill="rgba(255,248,239,0.82)" stroke="rgba(37,24,21,0.14)" />
        <text x="77" y="27" text-anchor="middle" fill="#251815" font-family="'IBM Plex Sans', 'Segoe UI', sans-serif" font-size="16" font-weight="600">Release Control</text>
      </g>
    

  <g transform="translate(664 534)">
    <rect width="852" height="228" rx="32" fill="rgba(255,248,239,0.78)" stroke="rgba(37,24,21,0.14)" />
    <text x="42" y="58" fill="#251815" font-family="'Space Grotesk', 'Segoe UI', sans-serif" font-size="28" font-weight="700">Canonical subscription matrix</text>
    <text x="42" y="104" fill="rgba(37,24,21,0.74)" font-family="'IBM Plex Sans', 'Segoe UI', sans-serif" font-size="20">GPT-5.3/5.4 Codex, Claude Opus 4.6, Claude Sonnet 4.5/4.6, and Kimi K2.5 wired through CLI, desktop app, and VS Code surfaces.</text>
    <text x="42" y="156" fill="#0f5c61" font-family="'IBM Plex Sans', 'Segoe UI', sans-serif" font-size="18" font-weight="600">Release gate: lint • unit • integration • e2e • provider-matrix • build smoke</text>
    <text x="42" y="196" fill="rgba(37,24,21,0.66)" font-family="'IBM Plex Sans', 'Segoe UI', sans-serif" font-size="18">GitHub face: README banner, Pages landing, Actions badges, release artifacts, transparent camel logo.</text>
  </g>
</svg>