<?xml version="1.0" encoding="UTF-8"?>
<svg width="960" height="720" viewBox="0 0 960 720" fill="none" xmlns="http://www.w3.org/2000/svg">
  <defs>
    <linearGradient id="camelFill" x1="120" y1="180" x2="860" y2="560" gradientUnits="userSpaceOnUse">
      <stop offset="0%" stop-color="#f3e1c9" />
      <stop offset="58%" stop-color="#F7D7A8" />
      <stop offset="100%" stop-color="#E3A86F" />
    </linearGradient>
    <linearGradient id="camelShade" x1="220" y1="250" x2="760" y2="560" gradientUnits="userSpaceOnUse">
      <stop offset="0%" stop-color="#c86c2a" stop-opacity="0.85" />
      <stop offset="100%" stop-color="#91502d" stop-opacity="0.92" />
    </linearGradient>
    <filter id="softShadow" x="62" y="130" width="840" height="480" filterUnits="userSpaceOnUse" color-interpolation-filters="sRGB">
      <feDropShadow dx="0" dy="12" stdDeviation="18" flood-color="#7A4A2A" flood-opacity="0.18" />
    </filter>
  </defs>

  <g filter="url(#softShadow)">
    <path d="M 128 292 C 142.04 260 156.07999999999998 214 167 214 C 177.92000000000002 214 191.96 260 206 292 C 220.04 260 234.07999999999998 214 245 214 C 255.92000000000002 214 269.96 260 284 292 C 298.04 260 312.08 214 323 214 C 333.92 214 347.96 260 362 292 C 376.04 260 390.08 214 401 214 C 411.92 214 425.96 260 440 292 C 454.04 260 468.08 214 479 214 C 489.92 214 503.96 260 518 292 C 532.04 260 546.08 214 557 214 C 567.92 214 581.96 260 596 292 C 624 286 652 266 670 234 C 688 200 712 164 752 152 C 784 144 816 154 828 182 C 838 206 832 236 804 248 C 768 264 734 252 716 266 C 690 286 682 326 678 360 L 660 520 C 658 534 644 544 630 544 L 600 544 C 586 544 576 532 578 518 L 594 392 L 568 392 L 548 540 C 546 554 532 564 518 564 L 494 564 C 478 564 468 550 470 536 L 490 392 L 376 392 L 356 550 C 354 564 340 574 326 574 L 300 574 C 284 574 274 560 276 546 L 296 392 L 206 392 L 188 524 C 186 538 172 548 158 548 L 130 548 C 114 548 104 534 106 520 L 124 360 C 126 338 120 316 112 300 Z" fill="url(#camelFill)" stroke="#251815" stroke-width="18" stroke-linejoin="round" />
    <path d="M 146 350 C 198 316 258 324 316 334 C 376 344 442 344 512 328 C 578 314 652 320 734 350" stroke="url(#camelShade)" stroke-width="18" stroke-linecap="round" opacity="0.82" />
    <path d="M 704 206 C 726 196 750 198 766 214" stroke="#251815" stroke-width="12" stroke-linecap="round" />
    <circle cx="828" cy="194" r="7" fill="#251815" />
    
      <circle cx="207" cy="208" r="8" fill="#f0b353" stroke="#251815" stroke-width="4" />
      <circle cx="207" cy="208" r="3" fill="#251815" />
    
      <circle cx="285" cy="208" r="8" fill="#f0b353" stroke="#251815" stroke-width="4" />
      <circle cx="285" cy="208" r="3" fill="#251815" />
    
      <circle cx="363" cy="208" r="8" fill="#f0b353" stroke="#251815" stroke-width="4" />
      <circle cx="363" cy="208" r="3" fill="#251815" />
    
      <circle cx="441" cy="208" r="8" fill="#f0b353" stroke="#251815" stroke-width="4" />
      <circle cx="441" cy="208" r="3" fill="#251815" />
    
      <circle cx="519" cy="208" r="8" fill="#f0b353" stroke="#251815" stroke-width="4" />
      <circle cx="519" cy="208" r="3" fill="#251815" />
    
      <circle cx="597" cy="208" r="8" fill="#f0b353" stroke="#251815" stroke-width="4" />
      <circle cx="597" cy="208" r="3" fill="#251815" />
    
  </g>
</svg>